<?xml version="1.0" standalone="no"?>
<!DOCTYPE svg PUBLIC "-//W3C//DTD SVG 20010904//EN"
 "http://www.w3.org/TR/2001/REC-SVG-20010904/DTD/svg10.dtd">
<svg version="1.0" xmlns="http://www.w3.org/2000/svg"
 width="700.000000pt" height="700.000000pt" viewBox="0 0 700.000000 700.000000"
 preserveAspectRatio="xMidYMid meet">
<metadata>
Created by potrace 1.14, written by Peter Selinger 2001-2017
</metadata>
<g transform="translate(0.000000,700.000000) scale(0.100000,-0.100000)"
fill="#000000" stroke="none">
<path d="M1 5125 c0 -1050 4 -1875 9 -1875 5 0 102 66 215 148 114 81 223 159
243 173 56 39 742 528 787 561 126 92 181 128 192 123 10 -3 172 -121 218
-158 12 -9 220 -165 805 -602 228 -170 417 -312 420 -315 3 -3 21 -17 40 -30
19 -13 37 -27 40 -30 3 -3 21 -16 40 -30 19 -13 40 -28 45 -32 9 -7 765 -574
820 -614 11 -8 142 -105 290 -216 1043 -780 1281 -958 1290 -965 6 -5 125 -94
265 -198 667 -498 1198 -895 1222 -914 14 -11 29 -21 32 -21 3 0 6 1546 6
3435 l0 3435 -3489 0 -3490 0 0 -1875z"/>
<path d="M1269 3315 c-96 -68 -178 -128 -184 -132 -5 -5 -197 -141 -425 -303
-228 -162 -419 -298 -425 -303 -5 -4 -50 -37 -100 -72 -50 -35 -95 -69 -102
-75 -7 -5 -17 -10 -22 -10 -7 0 -10 -396 -10 -1184 l0 -1184 2981 0 c2441 0
2978 2 2967 13 -8 7 -302 228 -654 490 -637 475 -736 549 -765 572 -8 7 -76
57 -150 112 -74 56 -146 110 -160 120 -14 10 -86 64 -160 120 -74 55 -146 109
-160 120 -14 10 -137 103 -275 205 -137 103 -261 195 -275 206 -14 10 -158
118 -320 239 -162 121 -299 223 -305 228 -15 12 -1093 818 -1164 870 -14 10
-46 35 -72 55 l-46 36 -174 -123z m-79 -1641 l0 -263 -42 -3 c-24 -2 -143 -2
-265 0 l-221 3 0 263 1 264 263 -1 264 0 0 -263z m661 257 c1 -3 2 -118 3
-255 1 -166 -3 -253 -10 -260 -7 -7 -94 -10 -265 -8 l-254 3 1 262 c1 144 2
262 3 263 5 5 521 0 522 -5z m-663 -920 l-3 -265 -245 -1 c-135 0 -252 1 -261
3 -14 3 -16 33 -16 260 0 141 1 259 3 262 1 3 120 6 263 6 l261 0 -2 -265z
m663 259 c5 -26 2 -504 -3 -513 -9 -14 -517 -16 -519 -2 -3 20 -5 510 -3 515
3 7 524 8 525 0z"/>
</g>
</svg>
