<svg xmlns="http://www.w3.org/2000/svg" xmlns:xlink="http://www.w3.org/1999/xlink" width="428" zoomAndPan="magnify" viewBox="0 0 321 110.999996" height="148" preserveAspectRatio="xMidYMid meet" version="1.0"><defs><g/><clipPath id="932955e5c6"><path d="M 0.339844 18.113281 L 61.5 18.113281 L 61.5 79.613281 L 0.339844 79.613281 Z M 0.339844 18.113281 " clip-rule="nonzero"/></clipPath><clipPath id="c0b45cc8b3"><path d="M 0.339844 49 L 54 49 L 54 79.613281 L 0.339844 79.613281 Z M 0.339844 49 " clip-rule="nonzero"/></clipPath></defs><g clip-path="url(#932955e5c6)"><path fill="#ffba19" d="M 0.0117188 18.113281 L 0.0117188 51.433594 L 7.75 45.914062 L 12.765625 42.339844 L 17.78125 46.089844 L 61.832031 79.03125 L 61.832031 18.113281 Z M 0.0117188 18.113281 " fill-opacity="1" fill-rule="nonzero"/></g><g clip-path="url(#c0b45cc8b3)"><path fill="#ffba19" d="M 12.765625 49.664062 L 53.050781 79.789062 L 0.0117188 79.789062 L 0.0117188 58.757812 Z M 11.730469 73.488281 L 16.417969 73.488281 L 16.417969 68.800781 L 11.730469 68.800781 Z M 11.730469 67.628906 L 16.417969 67.628906 L 16.417969 62.941406 L 11.730469 62.941406 Z M 5.871094 73.488281 L 10.558594 73.488281 L 10.558594 68.800781 L 5.871094 68.800781 Z M 5.871094 67.628906 L 10.558594 67.628906 L 10.558594 62.941406 L 5.871094 62.941406 Z M 5.871094 67.628906 " fill-opacity="1" fill-rule="nonzero"/></g><g fill="#ffffff" fill-opacity="1"><g transform="translate(70.807246, 38.779832)"><g><path d="M 18.125 0 L 13.421875 -6.734375 C 13.222656 -6.710938 12.929688 -6.703125 12.546875 -6.703125 L 7.359375 -6.703125 L 7.359375 0 L 3.078125 0 L 3.078125 -22.984375 L 12.546875 -22.984375 C 14.535156 -22.984375 16.265625 -22.65625 17.734375 -22 C 19.210938 -21.34375 20.347656 -20.398438 21.140625 -19.171875 C 21.929688 -17.941406 22.328125 -16.488281 22.328125 -14.8125 C 22.328125 -13.082031 21.90625 -11.59375 21.0625 -10.34375 C 20.21875 -9.09375 19.007812 -8.160156 17.4375 -7.546875 L 22.71875 0 Z M 18.015625 -14.8125 C 18.015625 -16.269531 17.535156 -17.394531 16.578125 -18.1875 C 15.617188 -18.976562 14.207031 -19.375 12.34375 -19.375 L 7.359375 -19.375 L 7.359375 -10.203125 L 12.34375 -10.203125 C 14.207031 -10.203125 15.617188 -10.601562 16.578125 -11.40625 C 17.535156 -12.207031 18.015625 -13.34375 18.015625 -14.8125 Z M 18.015625 -14.8125 "/></g></g></g><g fill="#ffffff" fill-opacity="1"><g transform="translate(94.800024, 38.779832)"><g><path d="M 20.328125 -3.578125 L 20.328125 0 L 3.078125 0 L 3.078125 -22.984375 L 19.859375 -22.984375 L 19.859375 -19.40625 L 7.359375 -19.40625 L 7.359375 -13.421875 L 18.453125 -13.421875 L 18.453125 -9.921875 L 7.359375 -9.921875 L 7.359375 -3.578125 Z M 20.328125 -3.578125 "/></g></g></g><g fill="#ffffff" fill-opacity="1"><g transform="translate(116.790685, 38.779832)"><g><path d="M 17.984375 -5.3125 L 6.5 -5.3125 L 4.234375 0 L -0.171875 0 L 10.171875 -22.984375 L 14.375 -22.984375 L 24.75 0 L 20.28125 0 Z M 16.578125 -8.671875 L 12.25 -18.71875 L 7.9375 -8.671875 Z M 16.578125 -8.671875 "/></g></g></g><g fill="#ffffff" fill-opacity="1"><g transform="translate(141.374259, 38.779832)"><g><path d="M 3.078125 -22.984375 L 7.359375 -22.984375 L 7.359375 -3.609375 L 19.375 -3.609375 L 19.375 0 L 3.078125 0 Z M 3.078125 -22.984375 "/></g></g></g><g fill="#ffffff" fill-opacity="1"><g transform="translate(161.034568, 38.779832)"><g/></g></g><g fill="#ffffff" fill-opacity="1"><g transform="translate(170.093397, 38.779832)"><g><path d="M 20.328125 -3.578125 L 20.328125 0 L 3.078125 0 L 3.078125 -22.984375 L 19.859375 -22.984375 L 19.859375 -19.40625 L 7.359375 -19.40625 L 7.359375 -13.421875 L 18.453125 -13.421875 L 18.453125 -9.921875 L 7.359375 -9.921875 L 7.359375 -3.578125 Z M 20.328125 -3.578125 "/></g></g></g><g fill="#ffffff" fill-opacity="1"><g transform="translate(192.084058, 38.779832)"><g><path d="M 10.203125 0.328125 C 8.429688 0.328125 6.71875 0.078125 5.0625 -0.421875 C 3.414062 -0.929688 2.113281 -1.597656 1.15625 -2.421875 L 2.625 -5.75 C 3.5625 -5 4.710938 -4.390625 6.078125 -3.921875 C 7.453125 -3.453125 8.828125 -3.21875 10.203125 -3.21875 C 11.910156 -3.21875 13.1875 -3.488281 14.03125 -4.03125 C 14.875 -4.582031 15.296875 -5.304688 15.296875 -6.203125 C 15.296875 -6.859375 15.0625 -7.398438 14.59375 -7.828125 C 14.125 -8.253906 13.523438 -8.585938 12.796875 -8.828125 C 12.078125 -9.066406 11.09375 -9.34375 9.84375 -9.65625 C 8.09375 -10.070312 6.675781 -10.484375 5.59375 -10.890625 C 4.507812 -11.304688 3.578125 -11.957031 2.796875 -12.84375 C 2.023438 -13.738281 1.640625 -14.941406 1.640625 -16.453125 C 1.640625 -17.710938 1.984375 -18.863281 2.671875 -19.90625 C 3.359375 -20.945312 4.394531 -21.773438 5.78125 -22.390625 C 7.175781 -23.003906 8.882812 -23.3125 10.90625 -23.3125 C 12.300781 -23.3125 13.675781 -23.132812 15.03125 -22.78125 C 16.394531 -22.425781 17.566406 -21.921875 18.546875 -21.265625 L 17.203125 -17.953125 C 16.191406 -18.546875 15.140625 -18.992188 14.046875 -19.296875 C 12.953125 -19.609375 11.890625 -19.765625 10.859375 -19.765625 C 9.179688 -19.765625 7.929688 -19.476562 7.109375 -18.90625 C 6.285156 -18.34375 5.875 -17.585938 5.875 -16.640625 C 5.875 -15.984375 6.109375 -15.445312 6.578125 -15.03125 C 7.046875 -14.613281 7.640625 -14.285156 8.359375 -14.046875 C 9.085938 -13.804688 10.078125 -13.535156 11.328125 -13.234375 C 13.035156 -12.835938 14.4375 -12.425781 15.53125 -12 C 16.625 -11.570312 17.554688 -10.921875 18.328125 -10.046875 C 19.109375 -9.171875 19.5 -7.988281 19.5 -6.5 C 19.5 -5.226562 19.15625 -4.078125 18.46875 -3.046875 C 17.78125 -2.023438 16.734375 -1.207031 15.328125 -0.59375 C 13.929688 0.0195312 12.222656 0.328125 10.203125 0.328125 Z M 10.203125 0.328125 "/></g></g></g><g fill="#ffffff" fill-opacity="1"><g transform="translate(212.729012, 38.779832)"><g><path d="M 7.75 -19.375 L 0.125 -19.375 L 0.125 -22.984375 L 19.625 -22.984375 L 19.625 -19.375 L 12.015625 -19.375 L 12.015625 0 L 7.75 0 Z M 7.75 -19.375 "/></g></g></g><g fill="#ffffff" fill-opacity="1"><g transform="translate(232.487784, 38.779832)"><g><path d="M 17.984375 -5.3125 L 6.5 -5.3125 L 4.234375 0 L -0.171875 0 L 10.171875 -22.984375 L 14.375 -22.984375 L 24.75 0 L 20.28125 0 Z M 16.578125 -8.671875 L 12.25 -18.71875 L 7.9375 -8.671875 Z M 16.578125 -8.671875 "/></g></g></g><g fill="#ffffff" fill-opacity="1"><g transform="translate(257.071358, 38.779832)"><g><path d="M 7.75 -19.375 L 0.125 -19.375 L 0.125 -22.984375 L 19.625 -22.984375 L 19.625 -19.375 L 12.015625 -19.375 L 12.015625 0 L 7.75 0 Z M 7.75 -19.375 "/></g></g></g><g fill="#ffffff" fill-opacity="1"><g transform="translate(276.83013, 38.779832)"><g><path d="M 20.328125 -3.578125 L 20.328125 0 L 3.078125 0 L 3.078125 -22.984375 L 19.859375 -22.984375 L 19.859375 -19.40625 L 7.359375 -19.40625 L 7.359375 -13.421875 L 18.453125 -13.421875 L 18.453125 -9.921875 L 7.359375 -9.921875 L 7.359375 -3.578125 Z M 20.328125 -3.578125 "/></g></g></g><g fill="#ffffff" fill-opacity="1"><g transform="translate(72.396923, 79.871644)"><g><path d="M 23.28125 -19.1875 C 22.320312 -20.320312 21.195312 -21.210938 19.90625 -21.859375 C 18.625 -22.515625 17.332031 -22.84375 16.03125 -22.84375 C 14.457031 -22.84375 13.019531 -22.457031 11.71875 -21.6875 C 10.414062 -20.914062 9.390625 -19.863281 8.640625 -18.53125 C 7.898438 -17.207031 7.53125 -15.734375 7.53125 -14.109375 C 7.53125 -12.492188 7.898438 -11.015625 8.640625 -9.671875 C 9.390625 -8.328125 10.414062 -7.257812 11.71875 -6.46875 C 13.019531 -5.6875 14.457031 -5.296875 16.03125 -5.296875 C 17.28125 -5.296875 18.546875 -5.59375 19.828125 -6.1875 C 21.117188 -6.789062 22.269531 -7.597656 23.28125 -8.609375 L 27 -4.578125 C 25.507812 -3.035156 23.757812 -1.8125 21.75 -0.90625 C 19.738281 -0.0078125 17.722656 0.4375 15.703125 0.4375 C 12.972656 0.4375 10.488281 -0.191406 8.25 -1.453125 C 6.019531 -2.710938 4.265625 -4.445312 2.984375 -6.65625 C 1.710938 -8.863281 1.078125 -11.320312 1.078125 -14.03125 C 1.078125 -16.71875 1.726562 -19.148438 3.03125 -21.328125 C 4.332031 -23.515625 6.117188 -25.226562 8.390625 -26.46875 C 10.660156 -27.71875 13.179688 -28.34375 15.953125 -28.34375 C 17.972656 -28.34375 19.960938 -27.925781 21.921875 -27.09375 C 23.890625 -26.257812 25.566406 -25.125 26.953125 -23.6875 Z M 23.28125 -19.1875 "/></g></g></g><g fill="#ffffff" fill-opacity="1"><g transform="translate(104.053375, 79.871644)"><g><path d="M 16.0625 -28.34375 C 18.851562 -28.34375 21.390625 -27.71875 23.671875 -26.46875 C 25.960938 -25.226562 27.765625 -23.507812 29.078125 -21.3125 C 30.398438 -19.125 31.0625 -16.6875 31.0625 -14 C 31.0625 -11.3125 30.398438 -8.863281 29.078125 -6.65625 C 27.765625 -4.445312 25.960938 -2.710938 23.671875 -1.453125 C 21.390625 -0.191406 18.851562 0.4375 16.0625 0.4375 C 13.269531 0.4375 10.734375 -0.191406 8.453125 -1.453125 C 6.171875 -2.710938 4.367188 -4.4375 3.046875 -6.625 C 1.734375 -8.820312 1.078125 -11.28125 1.078125 -14 C 1.078125 -16.6875 1.734375 -19.125 3.046875 -21.3125 C 4.367188 -23.507812 6.164062 -25.226562 8.4375 -26.46875 C 10.707031 -27.71875 13.25 -28.34375 16.0625 -28.34375 Z M 16.15625 -22.84375 C 14.613281 -22.84375 13.175781 -22.453125 11.84375 -21.671875 C 10.507812 -20.890625 9.457031 -19.816406 8.6875 -18.453125 C 7.914062 -17.097656 7.53125 -15.613281 7.53125 -14 C 7.53125 -12.351562 7.921875 -10.847656 8.703125 -9.484375 C 9.492188 -8.128906 10.546875 -7.050781 11.859375 -6.25 C 13.179688 -5.457031 14.613281 -5.0625 16.15625 -5.0625 C 17.695312 -5.0625 19.109375 -5.453125 20.390625 -6.234375 C 21.679688 -7.023438 22.707031 -8.101562 23.46875 -9.46875 C 24.226562 -10.84375 24.609375 -12.351562 24.609375 -14 C 24.609375 -15.613281 24.226562 -17.097656 23.46875 -18.453125 C 22.707031 -19.816406 21.679688 -20.890625 20.390625 -21.671875 C 19.109375 -22.453125 17.695312 -22.84375 16.15625 -22.84375 Z M 16.15625 -22.84375 "/></g></g></g><g fill="#ffffff" fill-opacity="1"><g transform="translate(140.175162, 79.871644)"><g><path d="M 22.375 -9.890625 L 22.375 -27.90625 L 28.34375 -27.90625 L 28.34375 0 L 22.609375 0 L 9.09375 -17.9375 L 9.09375 0 L 3.078125 0 L 3.078125 -27.90625 L 8.8125 -27.90625 Z M 22.375 -9.890625 "/></g></g></g><g fill="#ffffff" fill-opacity="1"><g transform="translate(175.57931, 79.871644)"><g><path d="M 22.375 -9.890625 L 22.375 -27.90625 L 28.34375 -27.90625 L 28.34375 0 L 22.609375 0 L 9.09375 -17.9375 L 9.09375 0 L 3.078125 0 L 3.078125 -27.90625 L 8.8125 -27.90625 Z M 22.375 -9.890625 "/></g></g></g><g fill="#ffffff" fill-opacity="1"><g transform="translate(210.983457, 79.871644)"><g><path d="M 3.078125 0 L 3.078125 -27.90625 L 24.328125 -27.90625 L 24.328125 -22.6875 L 9.375 -22.6875 L 9.375 -16.625 L 22.8125 -16.625 L 22.8125 -11.40625 L 9.375 -11.40625 L 9.375 -5.21875 L 24.765625 -5.21875 L 24.765625 0 Z M 3.078125 0 "/></g></g></g><g fill="#ffffff" fill-opacity="1"><g transform="translate(241.603309, 79.871644)"><g><path d="M 23.28125 -19.1875 C 22.320312 -20.320312 21.195312 -21.210938 19.90625 -21.859375 C 18.625 -22.515625 17.332031 -22.84375 16.03125 -22.84375 C 14.457031 -22.84375 13.019531 -22.457031 11.71875 -21.6875 C 10.414062 -20.914062 9.390625 -19.863281 8.640625 -18.53125 C 7.898438 -17.207031 7.53125 -15.734375 7.53125 -14.109375 C 7.53125 -12.492188 7.898438 -11.015625 8.640625 -9.671875 C 9.390625 -8.328125 10.414062 -7.257812 11.71875 -6.46875 C 13.019531 -5.6875 14.457031 -5.296875 16.03125 -5.296875 C 17.28125 -5.296875 18.546875 -5.59375 19.828125 -6.1875 C 21.117188 -6.789062 22.269531 -7.597656 23.28125 -8.609375 L 27 -4.578125 C 25.507812 -3.035156 23.757812 -1.8125 21.75 -0.90625 C 19.738281 -0.0078125 17.722656 0.4375 15.703125 0.4375 C 12.972656 0.4375 10.488281 -0.191406 8.25 -1.453125 C 6.019531 -2.710938 4.265625 -4.445312 2.984375 -6.65625 C 1.710938 -8.863281 1.078125 -11.320312 1.078125 -14.03125 C 1.078125 -16.71875 1.726562 -19.148438 3.03125 -21.328125 C 4.332031 -23.515625 6.117188 -25.226562 8.390625 -26.46875 C 10.660156 -27.71875 13.179688 -28.34375 15.953125 -28.34375 C 17.972656 -28.34375 19.960938 -27.925781 21.921875 -27.09375 C 23.890625 -26.257812 25.566406 -25.125 26.953125 -23.6875 Z M 23.28125 -19.1875 "/></g></g></g><g fill="#ffffff" fill-opacity="1"><g transform="translate(273.259753, 79.871644)"><g><path d="M 0.3125 -22.5625 L 0.3125 -27.90625 L 23.640625 -27.90625 L 23.640625 -22.5625 L 15.109375 -22.5625 L 15.109375 0 L 8.8125 0 L 8.8125 -22.5625 Z M 0.3125 -22.5625 "/></g></g></g></svg>