<svg xmlns="http://www.w3.org/2000/svg" xmlns:xlink="http://www.w3.org/1999/xlink" width="209" zoomAndPan="magnify" viewBox="0 0 156.75 197.999996" height="264" preserveAspectRatio="xMidYMid meet" version="1.0"><defs><g/><clipPath id="1c7b2d10c2"><path d="M 11.980469 0.15625 L 144.425781 0.15625 L 144.425781 131 L 11.980469 131 Z M 11.980469 0.15625 " clip-rule="nonzero"/></clipPath><clipPath id="e6f56f0a08"><path d="M 11.980469 67 L 126 67 L 126 131.949219 L 11.980469 131.949219 Z M 11.980469 67 " clip-rule="nonzero"/></clipPath></defs><g clip-path="url(#1c7b2d10c2)"><path fill="#ffba19" d="M 11.992188 0.15625 L 11.992188 71.535156 L 28.570312 59.714844 L 39.3125 52.054688 L 50.054688 60.085938 L 144.421875 130.65625 L 144.421875 0.15625 Z M 11.992188 0.15625 " fill-opacity="1" fill-rule="nonzero"/></g><g clip-path="url(#e6f56f0a08)"><path fill="#ffba19" d="M 39.3125 67.742188 L 125.605469 132.273438 L 11.992188 132.273438 L 11.992188 87.226562 Z M 37.097656 118.78125 L 47.140625 118.78125 L 47.140625 108.738281 L 37.097656 108.738281 Z M 37.097656 106.230469 L 47.140625 106.230469 L 47.140625 96.1875 L 37.097656 96.1875 Z M 24.542969 118.78125 L 34.585938 118.78125 L 34.585938 108.738281 L 24.542969 108.738281 Z M 24.542969 106.230469 L 34.585938 106.230469 L 34.585938 96.1875 L 24.542969 96.1875 Z M 24.542969 106.230469 " fill-opacity="1" fill-rule="nonzero"/></g><g fill="#001f3f" fill-opacity="1"><g transform="translate(12.646113, 155.770421)"><g><path d="M 10.421875 0 L 7.71875 -3.875 C 7.601562 -3.851562 7.429688 -3.84375 7.203125 -3.84375 L 4.234375 -3.84375 L 4.234375 0 L 1.78125 0 L 1.78125 -13.21875 L 7.203125 -13.21875 C 8.347656 -13.21875 9.34375 -13.023438 10.1875 -12.640625 C 11.039062 -12.265625 11.691406 -11.722656 12.140625 -11.015625 C 12.597656 -10.316406 12.828125 -9.484375 12.828125 -8.515625 C 12.828125 -7.515625 12.582031 -6.65625 12.09375 -5.9375 C 11.613281 -5.226562 10.921875 -4.695312 10.015625 -4.34375 L 13.0625 0 Z M 10.359375 -8.515625 C 10.359375 -9.359375 10.082031 -10.003906 9.53125 -10.453125 C 8.976562 -10.910156 8.164062 -11.140625 7.09375 -11.140625 L 4.234375 -11.140625 L 4.234375 -5.875 L 7.09375 -5.875 C 8.164062 -5.875 8.976562 -6.101562 9.53125 -6.5625 C 10.082031 -7.019531 10.359375 -7.671875 10.359375 -8.515625 Z M 10.359375 -8.515625 "/></g></g></g><g fill="#001f3f" fill-opacity="1"><g transform="translate(26.441775, 155.770421)"><g><path d="M 11.6875 -2.0625 L 11.6875 0 L 1.78125 0 L 1.78125 -13.21875 L 11.421875 -13.21875 L 11.421875 -11.15625 L 4.234375 -11.15625 L 4.234375 -7.71875 L 10.609375 -7.71875 L 10.609375 -5.703125 L 4.234375 -5.703125 L 4.234375 -2.0625 Z M 11.6875 -2.0625 "/></g></g></g><g fill="#001f3f" fill-opacity="1"><g transform="translate(39.086235, 155.770421)"><g><path d="M 10.34375 -3.0625 L 3.734375 -3.0625 L 2.4375 0 L -0.09375 0 L 5.84375 -13.21875 L 8.265625 -13.21875 L 14.234375 0 L 11.671875 0 Z M 9.53125 -4.984375 L 7.046875 -10.765625 L 4.5625 -4.984375 Z M 9.53125 -4.984375 "/></g></g></g><g fill="#001f3f" fill-opacity="1"><g transform="translate(53.221599, 155.770421)"><g><path d="M 1.78125 -13.21875 L 4.234375 -13.21875 L 4.234375 -2.078125 L 11.140625 -2.078125 L 11.140625 0 L 1.78125 0 Z M 1.78125 -13.21875 "/></g></g></g><g fill="#001f3f" fill-opacity="1"><g transform="translate(64.526125, 155.770421)"><g/></g></g><g fill="#001f3f" fill-opacity="1"><g transform="translate(69.734881, 155.770421)"><g><path d="M 11.6875 -2.0625 L 11.6875 0 L 1.78125 0 L 1.78125 -13.21875 L 11.421875 -13.21875 L 11.421875 -11.15625 L 4.234375 -11.15625 L 4.234375 -7.71875 L 10.609375 -7.71875 L 10.609375 -5.703125 L 4.234375 -5.703125 L 4.234375 -2.0625 Z M 11.6875 -2.0625 "/></g></g></g><g fill="#001f3f" fill-opacity="1"><g transform="translate(82.379341, 155.770421)"><g><path d="M 5.875 0.1875 C 4.851562 0.1875 3.863281 0.046875 2.90625 -0.234375 C 1.957031 -0.523438 1.207031 -0.910156 0.65625 -1.390625 L 1.515625 -3.296875 C 2.054688 -2.867188 2.71875 -2.519531 3.5 -2.25 C 4.289062 -1.976562 5.082031 -1.84375 5.875 -1.84375 C 6.851562 -1.84375 7.582031 -2 8.0625 -2.3125 C 8.550781 -2.632812 8.796875 -3.050781 8.796875 -3.5625 C 8.796875 -3.945312 8.660156 -4.257812 8.390625 -4.5 C 8.117188 -4.75 7.773438 -4.941406 7.359375 -5.078125 C 6.941406 -5.210938 6.375 -5.367188 5.65625 -5.546875 C 4.65625 -5.785156 3.84375 -6.023438 3.21875 -6.265625 C 2.59375 -6.503906 2.054688 -6.878906 1.609375 -7.390625 C 1.160156 -7.898438 0.9375 -8.585938 0.9375 -9.453125 C 0.9375 -10.179688 1.132812 -10.84375 1.53125 -11.4375 C 1.9375 -12.039062 2.535156 -12.519531 3.328125 -12.875 C 4.128906 -13.226562 5.109375 -13.40625 6.265625 -13.40625 C 7.066406 -13.40625 7.859375 -13.300781 8.640625 -13.09375 C 9.421875 -12.894531 10.097656 -12.609375 10.671875 -12.234375 L 9.890625 -10.328125 C 9.304688 -10.660156 8.703125 -10.914062 8.078125 -11.09375 C 7.453125 -11.269531 6.84375 -11.359375 6.25 -11.359375 C 5.28125 -11.359375 4.554688 -11.191406 4.078125 -10.859375 C 3.609375 -10.535156 3.375 -10.101562 3.375 -9.5625 C 3.375 -9.1875 3.507812 -8.878906 3.78125 -8.640625 C 4.050781 -8.398438 4.394531 -8.210938 4.8125 -8.078125 C 5.226562 -7.941406 5.796875 -7.785156 6.515625 -7.609375 C 7.492188 -7.378906 8.296875 -7.140625 8.921875 -6.890625 C 9.554688 -6.648438 10.097656 -6.273438 10.546875 -5.765625 C 10.992188 -5.265625 11.21875 -4.585938 11.21875 -3.734375 C 11.21875 -3.003906 11.015625 -2.34375 10.609375 -1.75 C 10.210938 -1.164062 9.613281 -0.695312 8.8125 -0.34375 C 8.007812 0.0078125 7.03125 0.1875 5.875 0.1875 Z M 5.875 0.1875 "/></g></g></g><g fill="#001f3f" fill-opacity="1"><g transform="translate(94.250029, 155.770421)"><g><path d="M 4.453125 -11.140625 L 0.078125 -11.140625 L 0.078125 -13.21875 L 11.28125 -13.21875 L 11.28125 -11.140625 L 6.90625 -11.140625 L 6.90625 0 L 4.453125 0 Z M 4.453125 -11.140625 "/></g></g></g><g fill="#001f3f" fill-opacity="1"><g transform="translate(105.61117, 155.770421)"><g><path d="M 10.34375 -3.0625 L 3.734375 -3.0625 L 2.4375 0 L -0.09375 0 L 5.84375 -13.21875 L 8.265625 -13.21875 L 14.234375 0 L 11.671875 0 Z M 9.53125 -4.984375 L 7.046875 -10.765625 L 4.5625 -4.984375 Z M 9.53125 -4.984375 "/></g></g></g><g fill="#001f3f" fill-opacity="1"><g transform="translate(119.746535, 155.770421)"><g><path d="M 4.453125 -11.140625 L 0.078125 -11.140625 L 0.078125 -13.21875 L 11.28125 -13.21875 L 11.28125 -11.140625 L 6.90625 -11.140625 L 6.90625 0 L 4.453125 0 Z M 4.453125 -11.140625 "/></g></g></g><g fill="#001f3f" fill-opacity="1"><g transform="translate(131.107676, 155.770421)"><g><path d="M 11.6875 -2.0625 L 11.6875 0 L 1.78125 0 L 1.78125 -13.21875 L 11.421875 -13.21875 L 11.421875 -11.15625 L 4.234375 -11.15625 L 4.234375 -7.71875 L 10.609375 -7.71875 L 10.609375 -5.703125 L 4.234375 -5.703125 L 4.234375 -2.0625 Z M 11.6875 -2.0625 "/></g></g></g><g fill="#001f3f" fill-opacity="1"><g transform="translate(13.560166, 179.397881)"><g><path d="M 13.390625 -11.03125 C 12.835938 -11.6875 12.191406 -12.203125 11.453125 -12.578125 C 10.710938 -12.953125 9.96875 -13.140625 9.21875 -13.140625 C 8.3125 -13.140625 7.484375 -12.914062 6.734375 -12.46875 C 5.984375 -12.03125 5.394531 -11.425781 4.96875 -10.65625 C 4.539062 -9.894531 4.328125 -9.046875 4.328125 -8.109375 C 4.328125 -7.179688 4.539062 -6.332031 4.96875 -5.5625 C 5.394531 -4.789062 5.984375 -4.175781 6.734375 -3.71875 C 7.484375 -3.269531 8.3125 -3.046875 9.21875 -3.046875 C 9.9375 -3.046875 10.664062 -3.21875 11.40625 -3.5625 C 12.144531 -3.90625 12.804688 -4.367188 13.390625 -4.953125 L 15.515625 -2.640625 C 14.660156 -1.753906 13.65625 -1.050781 12.5 -0.53125 C 11.34375 -0.0078125 10.1875 0.25 9.03125 0.25 C 7.457031 0.25 6.023438 -0.109375 4.734375 -0.828125 C 3.453125 -1.554688 2.445312 -2.554688 1.71875 -3.828125 C 0.988281 -5.097656 0.625 -6.507812 0.625 -8.0625 C 0.625 -9.613281 0.992188 -11.015625 1.734375 -12.265625 C 2.484375 -13.515625 3.507812 -14.5 4.8125 -15.21875 C 6.125 -15.9375 7.578125 -16.296875 9.171875 -16.296875 C 10.328125 -16.296875 11.46875 -16.054688 12.59375 -15.578125 C 13.726562 -15.097656 14.695312 -14.441406 15.5 -13.609375 Z M 13.390625 -11.03125 "/></g></g></g><g fill="#001f3f" fill-opacity="1"><g transform="translate(31.762378, 179.397881)"><g><path d="M 9.234375 -16.296875 C 10.835938 -16.296875 12.296875 -15.9375 13.609375 -15.21875 C 14.929688 -14.5 15.96875 -13.507812 16.71875 -12.25 C 17.476562 -10.988281 17.859375 -9.585938 17.859375 -8.046875 C 17.859375 -6.503906 17.476562 -5.097656 16.71875 -3.828125 C 15.96875 -2.554688 14.929688 -1.554688 13.609375 -0.828125 C 12.296875 -0.109375 10.835938 0.25 9.234375 0.25 C 7.628906 0.25 6.171875 -0.109375 4.859375 -0.828125 C 3.546875 -1.554688 2.507812 -2.550781 1.75 -3.8125 C 1 -5.070312 0.625 -6.484375 0.625 -8.046875 C 0.625 -9.585938 1 -10.988281 1.75 -12.25 C 2.507812 -13.507812 3.539062 -14.5 4.84375 -15.21875 C 6.15625 -15.9375 7.617188 -16.296875 9.234375 -16.296875 Z M 9.28125 -13.140625 C 8.394531 -13.140625 7.566406 -12.910156 6.796875 -12.453125 C 6.035156 -12.003906 5.429688 -11.390625 4.984375 -10.609375 C 4.546875 -9.828125 4.328125 -8.972656 4.328125 -8.046875 C 4.328125 -7.097656 4.550781 -6.234375 5 -5.453125 C 5.457031 -4.671875 6.0625 -4.050781 6.8125 -3.59375 C 7.570312 -3.132812 8.394531 -2.90625 9.28125 -2.90625 C 10.164062 -2.90625 10.976562 -3.128906 11.71875 -3.578125 C 12.46875 -4.035156 13.054688 -4.65625 13.484375 -5.4375 C 13.921875 -6.226562 14.140625 -7.097656 14.140625 -8.046875 C 14.140625 -8.972656 13.921875 -9.828125 13.484375 -10.609375 C 13.054688 -11.390625 12.46875 -12.003906 11.71875 -12.453125 C 10.976562 -12.910156 10.164062 -13.140625 9.28125 -13.140625 Z M 9.28125 -13.140625 "/></g></g></g><g fill="#001f3f" fill-opacity="1"><g transform="translate(52.532124, 179.397881)"><g><path d="M 12.859375 -5.6875 L 12.859375 -16.046875 L 16.296875 -16.046875 L 16.296875 0 L 13 0 L 5.21875 -10.3125 L 5.21875 0 L 1.765625 0 L 1.765625 -16.046875 L 5.0625 -16.046875 Z M 12.859375 -5.6875 "/></g></g></g><g fill="#001f3f" fill-opacity="1"><g transform="translate(72.889232, 179.397881)"><g><path d="M 12.859375 -5.6875 L 12.859375 -16.046875 L 16.296875 -16.046875 L 16.296875 0 L 13 0 L 5.21875 -10.3125 L 5.21875 0 L 1.765625 0 L 1.765625 -16.046875 L 5.0625 -16.046875 Z M 12.859375 -5.6875 "/></g></g></g><g fill="#001f3f" fill-opacity="1"><g transform="translate(93.246341, 179.397881)"><g><path d="M 1.765625 0 L 1.765625 -16.046875 L 13.984375 -16.046875 L 13.984375 -13.046875 L 5.390625 -13.046875 L 5.390625 -9.5625 L 13.109375 -9.5625 L 13.109375 -6.5625 L 5.390625 -6.5625 L 5.390625 -3 L 14.234375 -3 L 14.234375 0 Z M 1.765625 0 "/></g></g></g><g fill="#001f3f" fill-opacity="1"><g transform="translate(110.852516, 179.397881)"><g><path d="M 13.390625 -11.03125 C 12.835938 -11.6875 12.191406 -12.203125 11.453125 -12.578125 C 10.710938 -12.953125 9.96875 -13.140625 9.21875 -13.140625 C 8.3125 -13.140625 7.484375 -12.914062 6.734375 -12.46875 C 5.984375 -12.03125 5.394531 -11.425781 4.96875 -10.65625 C 4.539062 -9.894531 4.328125 -9.046875 4.328125 -8.109375 C 4.328125 -7.179688 4.539062 -6.332031 4.96875 -5.5625 C 5.394531 -4.789062 5.984375 -4.175781 6.734375 -3.71875 C 7.484375 -3.269531 8.3125 -3.046875 9.21875 -3.046875 C 9.9375 -3.046875 10.664062 -3.21875 11.40625 -3.5625 C 12.144531 -3.90625 12.804688 -4.367188 13.390625 -4.953125 L 15.515625 -2.640625 C 14.660156 -1.753906 13.65625 -1.050781 12.5 -0.53125 C 11.34375 -0.0078125 10.1875 0.25 9.03125 0.25 C 7.457031 0.25 6.023438 -0.109375 4.734375 -0.828125 C 3.453125 -1.554688 2.445312 -2.554688 1.71875 -3.828125 C 0.988281 -5.097656 0.625 -6.507812 0.625 -8.0625 C 0.625 -9.613281 0.992188 -11.015625 1.734375 -12.265625 C 2.484375 -13.515625 3.507812 -14.5 4.8125 -15.21875 C 6.125 -15.9375 7.578125 -16.296875 9.171875 -16.296875 C 10.328125 -16.296875 11.46875 -16.054688 12.59375 -15.578125 C 13.726562 -15.097656 14.695312 -14.441406 15.5 -13.609375 Z M 13.390625 -11.03125 "/></g></g></g><g fill="#001f3f" fill-opacity="1"><g transform="translate(129.054724, 179.397881)"><g><path d="M 0.1875 -12.96875 L 0.1875 -16.046875 L 13.59375 -16.046875 L 13.59375 -12.96875 L 8.6875 -12.96875 L 8.6875 0 L 5.0625 0 L 5.0625 -12.96875 Z M 0.1875 -12.96875 "/></g></g></g></svg>