<svg xmlns="http://www.w3.org/2000/svg" xmlns:xlink="http://www.w3.org/1999/xlink" width="177" zoomAndPan="magnify" viewBox="0 0 132.75 132.749998" height="177" preserveAspectRatio="xMidYMid meet" version="1.0"><defs><clipPath id="ae21baacb4"><path d="M 0 0 L 132.40625 0 L 132.40625 131 L 0 131 Z M 0 0 " clip-rule="nonzero"/></clipPath><clipPath id="a7a29de3ca"><path d="M 0 67 L 114 67 L 114 131.75 L 0 131.75 Z M 0 67 " clip-rule="nonzero"/></clipPath><clipPath id="41a7e48c3c"><path d="M 10.0625 37.417969 L 16.097656 37.417969 L 16.097656 43.457031 L 10.0625 43.457031 Z M 10.0625 37.417969 " clip-rule="nonzero"/></clipPath><clipPath id="87d8abcc29"><path d="M 13.082031 37.417969 C 11.414062 37.417969 10.0625 38.769531 10.0625 40.4375 C 10.0625 42.105469 11.414062 43.457031 13.082031 43.457031 C 14.746094 43.457031 16.097656 42.105469 16.097656 40.4375 C 16.097656 38.769531 14.746094 37.417969 13.082031 37.417969 Z M 13.082031 37.417969 " clip-rule="nonzero"/></clipPath></defs><g clip-path="url(#ae21baacb4)"><path fill="#ffba19" d="M 0.015625 0 L 0.015625 71.359375 L 16.585938 59.539062 L 27.328125 51.878906 L 38.066406 59.910156 L 132.40625 130.460938 L 132.40625 0 Z M 0.015625 0 " fill-opacity="1" fill-rule="nonzero"/></g><g clip-path="url(#a7a29de3ca)"><path fill="#ffba19" d="M 27.328125 67.566406 L 113.59375 132.078125 L 0.0117188 132.078125 L 0.0117188 87.042969 Z M 25.113281 118.589844 L 35.152344 118.589844 L 35.152344 108.550781 L 25.113281 108.550781 Z M 25.113281 106.042969 L 35.152344 106.042969 L 35.152344 96.003906 L 25.113281 96.003906 Z M 12.5625 118.589844 L 22.601562 118.589844 L 22.601562 108.550781 L 12.5625 108.550781 Z M 12.5625 106.042969 L 22.601562 106.042969 L 22.601562 96.003906 L 12.5625 96.003906 Z M 12.5625 106.042969 " fill-opacity="1" fill-rule="nonzero"/></g><g clip-path="url(#41a7e48c3c)"><g clip-path="url(#87d8abcc29)"><path fill="#ffba19" d="M 10.0625 37.417969 L 16.097656 37.417969 L 16.097656 43.457031 L 10.0625 43.457031 Z M 10.0625 37.417969 " fill-opacity="1" fill-rule="nonzero"/></g></g></svg>